<?xml version="1.0" standalone="no"?>
<!DOCTYPE svg PUBLIC "-//W3C//DTD SVG 20010904//EN"
 "http://www.w3.org/TR/2001/REC-SVG-20010904/DTD/svg10.dtd">
<svg version="1.0" xmlns="http://www.w3.org/2000/svg"
 width="1231.000000pt" height="1280.000000pt" viewBox="0 0 1231.000000 1280.000000"
 preserveAspectRatio="xMidYMid meet">
<metadata>
Created by potrace 1.15, written by Peter Selinger 2001-2017
</metadata>
<g transform="translate(0.000000,1280.000000) scale(0.100000,-0.100000)"
fill="#f9f634" stroke="none">
<path d="M4950 12098 c0 -13 -9 -135 -20 -273 -28 -344 -46 -582 -70 -905 -11
-151 -29 -394 -40 -540 -11 -146 -27 -359 -35 -475 -9 -115 -20 -271 -25 -345
-6 -74 -15 -193 -20 -265 -5 -71 -14 -191 -20 -265 -5 -74 -14 -196 -19 -270
-24 -329 -42 -556 -46 -565 -2 -5 -4 10 -5 35 l-2 45 -9 -45 c-21 -113 -134
-284 -229 -350 -19 -13 -37 -27 -40 -30 -3 -3 -22 -14 -42 -25 -20 -10 -35
-22 -33 -26 3 -3 -46 -25 -108 -47 -482 -173 -1227 -440 -2182 -782 -367 -131
-1115 -404 -1305 -476 -15 -6 29 -25 515 -229 304 -127 464 -193 1290 -530
319 -130 828 -338 1130 -462 303 -124 567 -233 587 -241 21 -8 35 -18 33 -22
-3 -5 10 -17 29 -28 141 -83 248 -241 289 -427 3 -14 5 -11 6 9 0 16 3 27 5
25 5 -5 21 -478 66 -2009 35 -1179 53 -1626 65 -1638 3 -3 5 4 5 16 0 21 0 21
43 -3 23 -14 63 -28 90 -31 38 -5 45 -9 36 -20 -6 -8 -9 -14 -6 -14 11 0 361
409 1349 1578 555 655 1012 1192 1015 1192 4 0 -3 -10 -15 -23 -36 -38 -25
-42 16 -6 68 59 79 67 154 102 93 44 171 58 305 56 117 -2 85 6 748 -189 110
-32 310 -91 445 -130 135 -39 319 -93 410 -120 91 -27 273 -80 405 -119 132
-38 341 -100 465 -136 124 -36 439 -127 700 -201 261 -74 503 -143 538 -153
l63 -19 -14 22 c-8 11 -94 154 -192 316 -167 276 -597 973 -1435 2325 -195
314 -354 578 -355 587 -1 10 -5 21 -10 25 -4 5 -5 2 -1 -4 4 -7 5 -13 3 -13
-3 0 -15 17 -27 37 -17 30 -18 34 -4 22 16 -13 17 -12 10 6 -39 96 -49 145
-49 250 0 92 4 123 26 190 15 44 38 98 53 119 15 21 22 36 15 32 -6 -4 -11 -4
-11 -1 0 4 68 106 152 228 1028 1503 1975 2899 1984 2922 5 12 0 12 -28 4 -18
-5 -166 -41 -328 -80 -326 -78 -602 -145 -1027 -250 -556 -136 -852 -209
-1113 -273 -146 -36 -395 -97 -555 -136 -679 -167 -779 -190 -789 -186 -6 2
-2 5 9 6 11 1 37 7 59 13 35 11 27 12 -75 12 -164 0 -272 40 -401 148 l-73 61
34 -44 c53 -68 54 -70 48 -70 -10 0 -92 116 -92 130 0 8 -5 15 -12 15 -14 0
35 -63 -1026 1313 -1159 1502 -1290 1671 -1299 1671 -5 1 -8 -9 -8 -21z m4523
-5499 c-10 -17 -24 -36 -32 -42 -8 -7 -2 7 14 31 32 49 45 57 18 11z m-1708
-2799 c13 -6 15 -9 5 -9 -8 0 -22 4 -30 9 -18 12 -2 12 25 0z"/>
<path d="M4651 8314 c0 -11 3 -14 6 -6 3 7 2 16 -1 19 -3 4 -6 -2 -5 -13z"/>
</g>
</svg>
